<?xml version="1.0" encoding="UTF-8" standalone="no"?>
<!DOCTYPE svg PUBLIC "-//W3C//DTD SVG 1.1//EN" "http://www.w3.org/Graphics/SVG/1.1/DTD/svg11.dtd">
<svg version="1.1" xmlns="http://www.w3.org/2000/svg" xmlns:xlink="http://www.w3.org/1999/xlink" preserveAspectRatio="xMidYMid meet" viewBox="0 0 640 640" width="640" height="640"><defs><path d="M23.86 140.93L613.38 140.93L613.38 461.56L23.86 461.56L23.86 140.93Z" id="bePUQdRnL"></path><path d="M206.48 160.31C207.69 160.31 208.67 161.29 208.67 162.5C208.67 178.27 208.67 223.38 208.67 239.15C208.67 240.35 207.69 241.33 206.48 241.33C172.23 241.33 71.68 241.33 37.43 241.33C36.22 241.33 35.25 240.35 35.25 239.15C35.25 223.38 35.25 178.27 35.25 162.5C35.25 161.29 36.22 160.31 37.43 160.31C71.68 160.31 172.23 160.31 206.48 160.31Z" id="bRBRzuf3D"></path><path d="M206.48 259.29C207.69 259.29 208.67 260.27 208.67 261.47C208.67 277.24 208.67 322.35 208.67 338.12C208.67 339.32 207.69 340.3 206.48 340.3C172.23 340.3 71.68 340.3 37.43 340.3C36.22 340.3 35.25 339.32 35.25 338.12C35.25 322.35 35.25 277.24 35.25 261.47C35.25 260.27 36.22 259.29 37.43 259.29C71.68 259.29 172.23 259.29 206.48 259.29Z" id="b6oFqyuvK"></path><path d="M402.8 160.31C404.01 160.31 404.99 161.29 404.99 162.5C404.99 178.27 404.99 223.38 404.99 239.15C404.99 240.35 404.01 241.33 402.8 241.33C368.56 241.33 268 241.33 233.75 241.33C232.55 241.33 231.57 240.35 231.57 239.15C231.57 223.38 231.57 178.27 231.57 162.5C231.57 161.29 232.55 160.31 233.75 160.31C268 160.31 368.56 160.31 402.8 160.31Z" id="a4YKMHFTm"></path><path d="M402.8 259.29C404.01 259.29 404.99 260.27 404.99 261.47C404.99 277.24 404.99 322.35 404.99 338.12C404.99 339.32 404.01 340.3 402.8 340.3C368.56 340.3 268 340.3 233.75 340.3C232.55 340.3 231.57 339.32 231.57 338.12C231.57 322.35 231.57 277.24 231.57 261.47C231.57 260.27 232.55 259.29 233.75 259.29C268 259.29 368.56 259.29 402.8 259.29Z" id="a1whFaGGJK"></path><path d="M599.66 160.31C600.87 160.31 601.84 161.29 601.84 162.5C601.84 178.27 601.84 223.38 601.84 239.15C601.84 240.35 600.87 241.33 599.66 241.33C565.41 241.33 464.86 241.33 430.61 241.33C429.4 241.33 428.42 240.35 428.42 239.15C428.42 223.38 428.42 178.27 428.42 162.5C428.42 161.29 429.4 160.31 430.61 160.31C464.86 160.31 565.41 160.31 599.66 160.31Z" id="b20gruxE76"></path><path d="M599.66 259.29C600.87 259.29 601.84 260.27 601.84 261.47C601.84 277.24 601.84 322.35 601.84 338.12C601.84 339.32 600.87 340.3 599.66 340.3C565.41 340.3 464.86 340.3 430.61 340.3C429.4 340.3 428.42 339.32 428.42 338.12C428.42 322.35 428.42 277.24 428.42 261.47C428.42 260.27 429.4 259.29 430.61 259.29C464.86 259.29 565.41 259.29 599.66 259.29Z" id="a1saa7q6Fu"></path><path d="M599.66 358.72C600.87 358.72 601.84 359.7 601.84 360.91C601.84 376.68 601.84 421.79 601.84 437.56C601.84 438.76 600.87 439.74 599.66 439.74C565.41 439.74 464.86 439.74 430.61 439.74C429.4 439.74 428.42 438.76 428.42 437.56C428.42 421.79 428.42 376.68 428.42 360.91C428.42 359.7 429.4 358.72 430.61 358.72C464.86 358.72 565.41 358.72 599.66 358.72Z" id="b1cP4s3fLb"></path><path d="M581.85 245.34L581.86 245.35L558.98 272.51L516.61 222.19L539.48 195.03L558.97 218.18L617.12 149.12L640 176.29L581.85 245.34Z" id="g1yxEZhwaM"></path><path d="M580.38 339.48L580.38 339.49L557.51 366.65L515.13 316.33L538.01 289.16L557.5 312.31L615.65 243.26L638.53 270.42L580.38 339.48Z" id="bTMhyoDQ"></path><path d="M572.57 439.25L572.57 439.26L549.7 466.42L507.33 416.1L530.2 388.94L549.69 412.09L607.84 343.03L630.72 370.2L572.57 439.25Z" id="f1VZYVv0fO"></path></defs><g><g><g><use xlink:href="#bePUQdRnL" opacity="1" fill="#313359" fill-opacity="1"></use></g><g><use xlink:href="#bRBRzuf3D" opacity="1" fill="#e4c1ff" fill-opacity="1"></use></g><g><use xlink:href="#b6oFqyuvK" opacity="1" fill="#e4c1ff" fill-opacity="1"></use></g><g><use xlink:href="#a4YKMHFTm" opacity="1" fill="#e4c1ff" fill-opacity="1"></use></g><g><use xlink:href="#a1whFaGGJK" opacity="1" fill="#e4c1ff" fill-opacity="1"></use></g><g><use xlink:href="#b20gruxE76" opacity="1" fill="#e4c1ff" fill-opacity="1"></use></g><g><use xlink:href="#a1saa7q6Fu" opacity="1" fill="#e4c1ff" fill-opacity="1"></use></g><g><use xlink:href="#b1cP4s3fLb" opacity="1" fill="#e4c1ff" fill-opacity="1"></use></g><g><use xlink:href="#g1yxEZhwaM" opacity="1" fill="#682246" fill-opacity="1"></use></g><g><use xlink:href="#bTMhyoDQ" opacity="1" fill="#682246" fill-opacity="1"></use></g><g><use xlink:href="#f1VZYVv0fO" opacity="1" fill="#682246" fill-opacity="1"></use></g></g></g></svg>